<?xml version="1.0" encoding="UTF-8" standalone="no"?>
<!-- Created with Inkscape (http://www.inkscape.org/) -->

<svg
   xmlns:dc="http://purl.org/dc/elements/1.1/"
   xmlns:cc="http://creativecommons.org/ns#"
   xmlns:rdf="http://www.w3.org/1999/02/22-rdf-syntax-ns#"
   xmlns:svg="http://www.w3.org/2000/svg"
   xmlns="http://www.w3.org/2000/svg"
   xmlns:sodipodi="http://sodipodi.sourceforge.net/DTD/sodipodi-0.dtd"
   xmlns:inkscape="http://www.inkscape.org/namespaces/inkscape"
   width="75.548721mm"
   height="45.155552mm"
   viewBox="0 0 267.69232 159.99999"
   id="svg2"
   version="1.1"
   inkscape:version="0.91 r13725"
   sodipodi:docname="logo.svg">
  <defs
     id="defs4" />
  <sodipodi:namedview
     id="base"
     pagecolor="#ffffff"
     bordercolor="#666666"
     borderopacity="1.0"
     inkscape:pageopacity="0.0"
     inkscape:pageshadow="2"
     inkscape:zoom="0.98994949"
     inkscape:cx="329.89838"
     inkscape:cy="-19.610426"
     inkscape:document-units="px"
     inkscape:current-layer="g4481"
     showgrid="false"
     inkscape:window-width="1440"
     inkscape:window-height="851"
     inkscape:window-x="0"
     inkscape:window-y="0"
     inkscape:window-maximized="1"
     fit-margin-top="0"
     fit-margin-left="0"
     fit-margin-right="0"
     fit-margin-bottom="0">
    <inkscape:grid
       type="xygrid"
       id="grid4318"
       originx="-242.8571"
       originy="-725.71433" />
  </sodipodi:namedview>
  <metadata
     id="metadata7">
    <rdf:RDF>
      <cc:Work
         rdf:about="">
        <dc:format>image/svg+xml</dc:format>
        <dc:type
           rdf:resource="http://purl.org/dc/dcmitype/StillImage" />
        <dc:title />
      </cc:Work>
    </rdf:RDF>
  </metadata>
  <g
     inkscape:label="Layer 1"
     inkscape:groupmode="layer"
     id="layer1"
     transform="translate(-242.8571,-166.64791)">
    <g
       id="g4418"
       transform="matrix(1.4153621,0,0,1.4153621,-42.129589,-18.189032)">
      <g
         id="g4481"
         transform="matrix(0.35897434,0,0,0.35897434,191.39194,125.01872)">
        <path
           style="fill:none;fill-rule:evenodd;stroke:#000000;stroke-width:3.5;stroke-linecap:butt;stroke-linejoin:miter;stroke-miterlimit:4;stroke-dasharray:none;stroke-opacity:1"
           d="M 336.8416,234.00733 C 262.18891,237.32308 200.05669,226.69862 158.3767,190.61554 109.44353,148.72256 97.936251,81.64093 124.06738,58.719441 c 27.33074,-19.969765 88.4894,5.58752 120.38833,31.769955 42.63656,35.334664 49.04127,72.117564 41.53057,128.002204"
           id="path4229"
           inkscape:connector-curvature="0"
           sodipodi:nodetypes="ccccc" />
        <path
           sodipodi:nodetypes="ccccc"
           inkscape:connector-curvature="0"
           id="path4475"
           d="M 277.78388,233.97479 C 229.30455,228.18517 196.93312,222.66624 155.95606,190.09781 118.26974,153.12533 96.153952,82.8409 122.28508,59.91942 144.938,45.94826 175.9323,40.718392 244.69787,90.79432 c 39.82485,37.44345 45.28447,67.1402 41.99134,126.53948"
           style="fill:#156907;fill-opacity:0.36904764;fill-rule:evenodd;stroke:none;stroke-width:3.5;stroke-linecap:butt;stroke-linejoin:miter;stroke-miterlimit:4;stroke-dasharray:none;stroke-opacity:1" />
        <path
           d="M 561.36099,167.22715 A 263.43588,157.45592 0 0 1 308.93215,330.93581 263.43588,157.45592 0 0 1 34.93143,180.12597 263.43588,157.45592 0 0 1 287.13549,16.293596 263.43588,157.45592 0 0 1 561.34311,166.96903"
           sodipodi:open="true"
           sodipodi:end="6.2409832"
           sodipodi:start="6.2426239"
           sodipodi:ry="157.45592"
           sodipodi:rx="263.43588"
           sodipodi:cy="173.61203"
           sodipodi:cx="298.14178"
           sodipodi:type="arc"
           id="path4471"
           style="opacity:1;fill:#917e76;fill-opacity:0.1517857;fill-rule:evenodd;stroke:none;stroke-width:7.06532955;stroke-linecap:butt;stroke-miterlimit:4;stroke-dasharray:none;stroke-dashoffset:0;stroke-opacity:1" />
        <g
           id="g4216"
           transform="matrix(0.59944621,0.02658875,-0.02658875,0.59944621,109.99186,76.39862)">
          <path
             transform="matrix(0.89537176,0.44531944,-0.44531944,0.89537176,0,0)"
             d="M 467.01212,76.994329 A 14.285714,20.357143 0 0 1 453.3233,98.159876 14.285714,20.357143 0 0 1 438.46468,78.661991 14.285714,20.357143 0 0 1 452.14131,57.480448 14.285714,20.357143 0 0 1 467.01115,76.960957"
             sodipodi:open="true"
             sodipodi:end="6.2409832"
             sodipodi:start="6.2426239"
             sodipodi:ry="20.357143"
             sodipodi:rx="14.285714"
             sodipodi:cy="77.819817"
             sodipodi:cx="452.73816"
             sodipodi:type="arc"
             id="path4160"
             style="opacity:0.95999995;fill:#000000;fill-opacity:1;fill-rule:evenodd;stroke:none;stroke-width:2.27699995;stroke-linecap:butt;stroke-miterlimit:4;stroke-dasharray:none;stroke-dashoffset:0;stroke-opacity:1" />
          <path
             d="m 402.84922,267.32834 a 9.6428576,9.6428576 0 0 1 -9.23995,10.02579 9.6428576,9.6428576 0 0 1 -10.02958,-9.23585 9.6428576,9.6428576 0 0 1 9.23173,-10.03336 9.6428576,9.6428576 0 0 1 10.03715,9.22761"
             sodipodi:open="true"
             sodipodi:end="6.2409832"
             sodipodi:start="6.2426239"
             sodipodi:ry="9.6428576"
             sodipodi:rx="9.6428576"
             sodipodi:cy="267.71936"
             sodipodi:cx="393.21429"
             sodipodi:type="arc"
             id="path4162"
             style="opacity:0.95999995;fill:#000000;fill-opacity:1;fill-rule:evenodd;stroke:none;stroke-width:2.27699995;stroke-linecap:butt;stroke-miterlimit:4;stroke-dasharray:none;stroke-dashoffset:0;stroke-opacity:1" />
          <path
             d="m 414.99469,266.72987 a 6.4285712,6.7857141 0 0 1 -6.15996,7.05518 6.4285712,6.7857141 0 0 1 -6.68639,-6.49929 6.4285712,6.7857141 0 0 1 6.15449,-7.06051 6.4285712,6.7857141 0 0 1 6.69143,6.4935"
             sodipodi:open="true"
             sodipodi:end="6.2409832"
             sodipodi:start="6.2426239"
             sodipodi:ry="6.7857141"
             sodipodi:rx="6.4285712"
             sodipodi:cy="267.00504"
             sodipodi:cx="408.57141"
             sodipodi:type="arc"
             id="path4164"
             style="opacity:0.95999995;fill:#000000;fill-opacity:1;fill-rule:evenodd;stroke:none;stroke-width:2.27699995;stroke-linecap:butt;stroke-miterlimit:4;stroke-dasharray:none;stroke-dashoffset:0;stroke-opacity:1" />
          <path
             transform="matrix(0.9096221,0.41543669,-0.41543669,0.9096221,0,0)"
             d="m 550.41214,71.16864 a 31.071428,21.428572 0 0 1 -29.77318,22.279523 31.071428,21.428572 0 0 1 -32.31752,-20.524089 31.071428,21.428572 0 0 1 29.74667,-22.29636 31.071428,21.428572 0 0 1 32.34192,20.505798"
             sodipodi:open="true"
             sodipodi:end="6.2409832"
             sodipodi:start="6.2426239"
             sodipodi:ry="21.428572"
             sodipodi:rx="31.071428"
             sodipodi:cy="72.037575"
             sodipodi:cx="519.36627"
             sodipodi:type="arc"
             id="path4166"
             style="opacity:0.95999995;fill:#000000;fill-opacity:1;fill-rule:evenodd;stroke:none;stroke-width:2.27699995;stroke-linecap:butt;stroke-miterlimit:4;stroke-dasharray:none;stroke-dashoffset:0;stroke-opacity:1" />
          <path
             inkscape:connector-curvature="0"
             id="path4187"
             d="m 390.42396,277.07013 -18.68782,19.19289 -21.71828,25.25382 -8.5863,19.69797 -3.53553,11.11168"
             style="fill:none;fill-rule:evenodd;stroke:#000000;stroke-width:1.61345172;stroke-linecap:butt;stroke-linejoin:miter;stroke-miterlimit:4;stroke-dasharray:none;stroke-opacity:1" />
          <path
             inkscape:connector-curvature="0"
             id="path4189"
             d="m 383.35289,270.50413 -79.80205,3.03046 -35.35534,34.85026 -15.65736,11.61676 0,0 0,0 0,0 0,0"
             style="fill:none;fill-rule:evenodd;stroke:#000000;stroke-width:1.61345172;stroke-linecap:butt;stroke-linejoin:miter;stroke-miterlimit:4;stroke-dasharray:none;stroke-opacity:1" />
          <path
             inkscape:connector-curvature="0"
             id="path4191"
             d="M 426.78945,297.27318 Z"
             style="fill:none;fill-rule:evenodd;stroke:#000000;stroke-width:1px;stroke-linecap:butt;stroke-linejoin:miter;stroke-opacity:1" />
          <path
             inkscape:connector-curvature="0"
             id="path4193"
             d="m 409.11178,271.00921 8.5863,55.55839 15.15229,33.33503"
             style="fill:none;fill-rule:evenodd;stroke:#000000;stroke-width:1.61345172;stroke-linecap:butt;stroke-linejoin:miter;stroke-miterlimit:4;stroke-dasharray:none;stroke-opacity:1" />
          <path
             inkscape:connector-curvature="0"
             id="path4197"
             d="m 410.62701,260.40261 21.2132,-17.67767 31.81981,63.13453"
             style="fill:none;fill-rule:evenodd;stroke:#000000;stroke-width:1.20420587;stroke-linecap:butt;stroke-linejoin:miter;stroke-miterlimit:4;stroke-dasharray:none;stroke-opacity:1" />
          <path
             inkscape:connector-curvature="0"
             id="path4199"
             d="m 395.9798,257.87723 4.04061,-17.1726 18.18274,62.62946"
             style="fill:none;fill-rule:evenodd;stroke:#000000;stroke-width:1.30651736;stroke-linecap:butt;stroke-linejoin:miter;stroke-miterlimit:4;stroke-dasharray:none;stroke-opacity:1" />
          <path
             sodipodi:nodetypes="cccc"
             inkscape:connector-curvature="0"
             id="path4201"
             d="m 388.40365,259.89753 -36.87056,-32.82996 -36.87057,-4.04061 -21.71828,-11.11168"
             style="fill:none;fill-rule:evenodd;stroke:#000000;stroke-width:1.40882874;stroke-linecap:butt;stroke-linejoin:miter;stroke-miterlimit:4;stroke-dasharray:none;stroke-opacity:1" />
          <path
             style="opacity:0.95999995;fill:#000000;fill-opacity:1;fill-rule:evenodd;stroke:none;stroke-width:2.27699995;stroke-linecap:butt;stroke-miterlimit:4;stroke-dasharray:none;stroke-dashoffset:0;stroke-opacity:1"
             id="path4537"
             sodipodi:type="arc"
             sodipodi:cx="453.41089"
             sodipodi:cy="37.406643"
             sodipodi:rx="2.1709964"
             sodipodi:ry="6.3692145"
             sodipodi:start="6.2426239"
             sodipodi:end="6.2409832"
             sodipodi:open="true"
             d="m 455.5801,37.148369 a 2.1709964,6.3692145 0 0 1 -2.08029,6.622143 2.1709964,6.3692145 0 0 1 -2.25806,-6.100375 2.1709964,6.3692145 0 0 1 2.07843,-6.627147 2.1709964,6.3692145 0 0 1 2.25977,6.094938"
             transform="matrix(0.83102787,0.55623078,-0.55623078,0.83102787,0,0)"
             inkscape:transform-center-x="-0.35364942"
             inkscape:transform-center-y="-0.13574182" />
          <path
             inkscape:transform-center-y="-2.2106089"
             inkscape:transform-center-x="2.4077648"
             transform="matrix(0.63835119,0.76974526,-0.76974526,0.63835119,0,0)"
             d="m 454.8312,-94.968356 a 2.1709964,6.3692145 0 0 1 -2.08029,6.622142 2.1709964,6.3692145 0 0 1 -2.25806,-6.100375 2.1709964,6.3692145 0 0 1 2.07843,-6.627151 2.1709964,6.3692145 0 0 1 2.25977,6.094942"
             sodipodi:open="true"
             sodipodi:end="6.2409832"
             sodipodi:start="6.2426239"
             sodipodi:ry="6.3692145"
             sodipodi:rx="2.1709964"
             sodipodi:cy="-94.710083"
             sodipodi:cx="452.66199"
             sodipodi:type="arc"
             id="path4539"
             style="opacity:0.95999995;fill:#000000;fill-opacity:1;fill-rule:evenodd;stroke:none;stroke-width:2.27699995;stroke-linecap:butt;stroke-miterlimit:4;stroke-dasharray:none;stroke-dashoffset:0;stroke-opacity:1" />
        </g>
        <g
           transform="matrix(1.5309744,0,0,1.5309744,232.10052,-250.30614)"
           id="g4268">
          <g
             id="g4293">
            <path
               transform="translate(-202.14286,85)"
               d="m 237.37908,229.38641 a 8.20749,8.20749 0 0 1 -7.86456,8.53342 8.20749,8.20749 0 0 1 -8.53664,-7.86106 8.20749,8.20749 0 0 1 7.85756,-8.53987 8.20749,8.20749 0 0 1 8.54309,7.85405"
               sodipodi:open="true"
               sodipodi:end="6.2409832"
               sodipodi:start="6.2426239"
               sodipodi:ry="8.20749"
               sodipodi:rx="8.20749"
               sodipodi:cy="229.71922"
               sodipodi:cx="229.17834"
               sodipodi:type="arc"
               id="path4265"
               style="opacity:0.95999995;fill:#176907;fill-opacity:1;fill-rule:evenodd;stroke:#000000;stroke-width:1.5;stroke-linecap:butt;stroke-miterlimit:4;stroke-dasharray:none;stroke-dashoffset:0;stroke-opacity:1" />
            <text
               sodipodi:linespacing="125%"
               id="text4257"
               y="319.20224"
               x="22.851522"
               style="font-style:normal;font-variant:normal;font-weight:normal;font-stretch:normal;font-size:12.5px;line-height:125%;font-family:helvetica;-inkscape-font-specification:helvetica;letter-spacing:0px;word-spacing:0px;fill:#ffffff;fill-opacity:1;stroke:none;stroke-width:1px;stroke-linecap:butt;stroke-linejoin:miter;stroke-opacity:1"
               xml:space="preserve"><tspan
                 id="tspan4259"
                 y="319.20224"
                 x="22.851522"
                 sodipodi:role="line">A</tspan></text>
          </g>
        </g>
        <g
           transform="matrix(1.7474282,0,0,1.7474282,297.03311,-318.9401)"
           id="g4298">
          <g
             id="g4300">
            <path
               style="opacity:0.95999995;fill:#176907;fill-opacity:1;fill-rule:evenodd;stroke:#000000;stroke-width:1.5;stroke-linecap:butt;stroke-miterlimit:4;stroke-dasharray:none;stroke-dashoffset:0;stroke-opacity:1"
               id="path4302"
               sodipodi:type="arc"
               sodipodi:cx="229.17834"
               sodipodi:cy="229.71922"
               sodipodi:rx="8.20749"
               sodipodi:ry="8.20749"
               sodipodi:start="6.2426239"
               sodipodi:end="6.2409832"
               sodipodi:open="true"
               d="m 237.37908,229.38641 a 8.20749,8.20749 0 0 1 -7.86456,8.53342 8.20749,8.20749 0 0 1 -8.53664,-7.86106 8.20749,8.20749 0 0 1 7.85756,-8.53987 8.20749,8.20749 0 0 1 8.54309,7.85405"
               transform="translate(-202.14286,85)" />
            <text
               xml:space="preserve"
               style="font-style:normal;font-variant:normal;font-weight:normal;font-stretch:normal;font-size:12.5px;line-height:125%;font-family:helvetica;-inkscape-font-specification:helvetica;letter-spacing:0px;word-spacing:0px;fill:#ffffff;fill-opacity:1;stroke:none;stroke-width:1px;stroke-linecap:butt;stroke-linejoin:miter;stroke-opacity:1"
               x="22.851522"
               y="319.20224"
               id="text4304"
               sodipodi:linespacing="125%"><tspan
                 sodipodi:role="line"
                 x="22.851522"
                 y="319.20224"
                 id="tspan4306">A</tspan></text>
          </g>
        </g>
        <g
           id="g4273"
           transform="matrix(1.5309744,0,0,1.5309744,-111.88729,-86.126665)">
          <g
             id="g4288">
            <path
               d="m 268.69381,190.49554 a 8.20749,8.20749 0 0 1 -7.86456,8.53342 8.20749,8.20749 0 0 1 -8.53664,-7.86106 8.20749,8.20749 0 0 1 7.85756,-8.53987 8.20749,8.20749 0 0 1 8.54308,7.85405"
               sodipodi:open="true"
               sodipodi:end="6.2409832"
               sodipodi:start="6.2426239"
               sodipodi:ry="8.20749"
               sodipodi:rx="8.20749"
               sodipodi:cy="190.82835"
               sodipodi:cx="260.49307"
               sodipodi:type="arc"
               id="path4263"
               style="opacity:0.95999995;fill:#d57500;fill-opacity:1;fill-rule:evenodd;stroke:#000000;stroke-width:1.5;stroke-linecap:butt;stroke-miterlimit:4;stroke-dasharray:none;stroke-dashoffset:0;stroke-opacity:1" />
            <text
               xml:space="preserve"
               style="font-style:normal;font-variant:normal;font-weight:normal;font-stretch:normal;font-size:12.5px;line-height:125%;font-family:helvetica;-inkscape-font-specification:helvetica;letter-spacing:0px;word-spacing:0px;fill:#ffffff;fill-opacity:1;stroke:none;stroke-width:1px;stroke-linecap:butt;stroke-linejoin:miter;stroke-opacity:1"
               x="255.79337"
               y="195.31444"
               id="text4243"
               sodipodi:linespacing="125%"><tspan
                 sodipodi:role="line"
                 x="255.79337"
                 y="195.31444"
                 id="tspan4245">G</tspan></text>
          </g>
        </g>
        <g
           id="g4278"
           transform="translate(8.4259777,12.564392)">
          <g
             id="g4283"
             transform="matrix(1.5309744,0,0,1.5309744,-145.465,-109.17362)">
            <path
               style="opacity:0.95999995;fill:#b20000;fill-opacity:1;fill-rule:evenodd;stroke:#000000;stroke-width:1.5;stroke-linecap:butt;stroke-miterlimit:4;stroke-dasharray:none;stroke-dashoffset:0;stroke-opacity:1"
               id="path4261"
               sodipodi:type="arc"
               sodipodi:cx="278.8493"
               sodipodi:cy="179.93184"
               sodipodi:rx="8.20749"
               sodipodi:ry="8.20749"
               sodipodi:start="6.2426239"
               sodipodi:end="6.2409832"
               sodipodi:open="true"
               d="m 287.05004,179.59902 a 8.20749,8.20749 0 0 1 -7.86456,8.53342 8.20749,8.20749 0 0 1 -8.53664,-7.86106 8.20749,8.20749 0 0 1 7.85756,-8.53986 8.20749,8.20749 0 0 1 8.54309,7.85405" />
            <text
               sodipodi:linespacing="125%"
               id="text4247"
               y="184.29585"
               x="274.28082"
               style="font-style:normal;font-variant:normal;font-weight:normal;font-stretch:normal;font-size:12.5px;line-height:125%;font-family:helvetica;-inkscape-font-specification:helvetica;letter-spacing:0px;word-spacing:0px;fill:#ffffff;fill-opacity:1;stroke:none;stroke-width:1px;stroke-linecap:butt;stroke-linejoin:miter;stroke-opacity:1"
               xml:space="preserve"><tspan
                 id="tspan4249"
                 y="184.29585"
                 x="274.28082"
                 sodipodi:role="line">U</tspan></text>
          </g>
        </g>
        <g
           transform="matrix(1.7474282,0,0,1.7474282,-80.429122,-110.5856)"
           id="g4308">
          <g
             id="g4310">
            <path
               style="opacity:0.95999995;fill:#d57500;fill-opacity:1;fill-rule:evenodd;stroke:#000000;stroke-width:1.5;stroke-linecap:butt;stroke-miterlimit:4;stroke-dasharray:none;stroke-dashoffset:0;stroke-opacity:1"
               id="path4312"
               sodipodi:type="arc"
               sodipodi:cx="260.49307"
               sodipodi:cy="190.82835"
               sodipodi:rx="8.20749"
               sodipodi:ry="8.20749"
               sodipodi:start="6.2426239"
               sodipodi:end="6.2409832"
               sodipodi:open="true"
               d="m 268.69381,190.49554 a 8.20749,8.20749 0 0 1 -7.86456,8.53342 8.20749,8.20749 0 0 1 -8.53664,-7.86106 8.20749,8.20749 0 0 1 7.85756,-8.53987 8.20749,8.20749 0 0 1 8.54308,7.85405" />
            <text
               sodipodi:linespacing="125%"
               id="text4314"
               y="195.31444"
               x="255.79337"
               style="font-style:normal;font-variant:normal;font-weight:normal;font-stretch:normal;font-size:12.5px;line-height:125%;font-family:helvetica;-inkscape-font-specification:helvetica;letter-spacing:0px;word-spacing:0px;fill:#ffffff;fill-opacity:1;stroke:none;stroke-width:1px;stroke-linecap:butt;stroke-linejoin:miter;stroke-opacity:1"
               xml:space="preserve"><tspan
                 id="tspan4316"
                 y="195.31444"
                 x="255.79337"
                 sodipodi:role="line">G</tspan></text>
          </g>
        </g>
        <path
           style="fill:none;fill-rule:evenodd;stroke:#000000;stroke-width:3.5;stroke-linecap:butt;stroke-linejoin:miter;stroke-miterlimit:4;stroke-dasharray:none;stroke-opacity:1"
           d="m 389.0472,219.57321 c 50.60309,-31.16783 83.9019,-34.4203 131.42858,-21.42858"
           id="path4330"
           inkscape:connector-curvature="0"
           sodipodi:nodetypes="cc" />
        <g
           id="g4362"
           transform="matrix(0.9988606,0.04772331,-0.04772331,0.9988606,-7.7567865,-21.62726)">
          <g
             id="g4354">
            <path
               style="opacity:0.95999995;fill:#176907;fill-opacity:1;fill-rule:evenodd;stroke:none;stroke-width:3.5;stroke-linecap:butt;stroke-miterlimit:4;stroke-dasharray:none;stroke-dashoffset:0;stroke-opacity:1"
               id="path4348"
               d="m 217.63707,157.45949 c -3.70729,4.74852 -8.77685,8.13369 -13.69664,11.48767 -4.05954,2.76752 -11.68852,7.7166 -15.74301,10.36308 l -16.06299,6.85172 -0.0168,-0.35106 c 5.19207,-3.40689 14.55178,-8.53381 19.65041,-12.06136 4.31708,-2.98682 17.10911,-11.04836 20.19149,-15.41166 z"
               inkscape:connector-curvature="0"
               sodipodi:nodetypes="cscccscc" />
            <path
               sodipodi:nodetypes="cccccccc"
               inkscape:connector-curvature="0"
               d="m 140.56229,78.312886 c 13.4693,15.49101 50.39337,49.032764 65.23985,63.182894 11.0355,10.16244 76.60246,69.55483 88.27577,78.96149 l 0.40372,6.12647 -59.7246,-48.62847 C 223.61176,168.06509 208.07814,156.86502 196.93085,146.977 181.02699,130.7838 171.07499,121.38837 146.48123,95.275971 144.6029,89.92964 140.56229,78.312886 140.56229,78.312886 Z"
               id="path4338"
               style="opacity:1;fill:#176907;fill-opacity:1;fill-rule:evenodd;stroke:none;stroke-width:3.5;stroke-linecap:butt;stroke-miterlimit:4;stroke-dasharray:none;stroke-dashoffset:0;stroke-opacity:1" />
            <path
               style="opacity:1;fill:#176907;fill-opacity:1;fill-rule:evenodd;stroke:none;stroke-width:3.5;stroke-linecap:butt;stroke-miterlimit:4;stroke-dasharray:none;stroke-dashoffset:0;stroke-opacity:1"
               id="path4342"
               d="m 173.77991,116.95571 c 3.41469,-2.63458 10.012,-7.66407 13.31512,-10.43587 8.81528,-6.17001 10.52526,-7.224872 24.31368,-12.908505 l -1.93183,1.583632 c -3.43732,2.789011 -8.03961,8.364103 -11.27921,11.213483 -3.14428,2.68404 -12.9991,14.41947 -16.02816,17.23014 z"
               inkscape:connector-curvature="0"
               sodipodi:nodetypes="ccccccc" />
            <path
               style="opacity:1;fill:#176907;fill-opacity:1;fill-rule:evenodd;stroke:none;stroke-width:3.5;stroke-linecap:butt;stroke-miterlimit:4;stroke-dasharray:none;stroke-dashoffset:0;stroke-opacity:1"
               id="path4346"
               d="m 199.44413,135.51156 c 6.6797,-12.91125 11.75689,-17.16558 18.96255,-24.17487 l 11.57097,-5.7242 0,0 c -5.58037,5.28302 -2.88464,2.55709 -8.08898,8.17601 -4.41767,5.92887 -18.52483,28.39663 -18.52483,28.39663 z"
               inkscape:connector-curvature="0"
               sodipodi:nodetypes="ccccccc" />
            <path
               style="opacity:1;fill:#176907;fill-opacity:1;fill-rule:evenodd;stroke:none;stroke-width:3.5;stroke-linecap:butt;stroke-miterlimit:4;stroke-dasharray:none;stroke-dashoffset:0;stroke-opacity:1"
               id="path4350"
               d="m 216.33769,151.32837 c 3.80079,-7.33616 10.69234,-12.72967 15.69465,-18.33331 l 14.8326,-8.92787 12.17902,-4.24084 c -4.37851,3.61185 -9.34526,7.41722 -13.95164,10.72787 -7.78718,8.03082 -19.5361,20.62145 -24.65343,29.13769 z"
               inkscape:connector-curvature="0"
               sodipodi:nodetypes="ccccccc" />
            <path
               sodipodi:nodetypes="cscccscc"
               inkscape:connector-curvature="0"
               d="m 176.15942,122.74294 c -3.70729,4.74852 -8.40901,8.46798 -13.3288,11.82196 -4.05954,2.76752 -8.4586,4.80857 -12.51309,7.45505 l -10.77155,4.48772 -0.12612,0.006 c 5.19207,-3.40689 5.77193,-3.95315 10.87056,-7.4807 4.31708,-2.98682 20.21495,-13.34031 23.29733,-17.70361 z"
               id="path4352"
               style="opacity:1;fill:#176907;fill-opacity:1;fill-rule:evenodd;stroke:none;stroke-width:3.5;stroke-linecap:butt;stroke-miterlimit:4;stroke-dasharray:none;stroke-dashoffset:0;stroke-opacity:1" />
            <path
               sodipodi:nodetypes="cccccc"
               inkscape:connector-curvature="0"
               d="m 241.66824,177.58171 c -3.31916,5.02748 -6.11542,6.24583 -12.8602,10.07993 0,0 -17.8419,9.3088 -28.59726,11.39307 l -10.2429,2.01397 c 14.3401,-4.54074 34.82649,-15.95276 47.06291,-24.31794 z"
               id="path4372"
               style="opacity:1;fill:#176907;fill-opacity:1;fill-rule:evenodd;stroke:none;stroke-width:3.5;stroke-linecap:butt;stroke-miterlimit:4;stroke-dasharray:none;stroke-dashoffset:0;stroke-opacity:1" />
            <path
               sodipodi:nodetypes="ccccccc"
               inkscape:connector-curvature="0"
               d="m 237.25331,173.97816 c 4.02671,-7.21462 11.23337,-11.29046 16.25625,-17.83723 l 14.09743,-9.752 10.86113,-4.57168 c -3.97045,6.40808 -5.09373,8.12892 -10.41025,12.39979 -6.32188,5.70389 -21.99597,20.17531 -25.04336,27.5357 z"
               id="path4374"
               style="opacity:1;fill:#176907;fill-opacity:1;fill-rule:evenodd;stroke:none;stroke-width:3.5;stroke-linecap:butt;stroke-miterlimit:4;stroke-dasharray:none;stroke-dashoffset:0;stroke-opacity:1" />
            <path
               style="opacity:1;fill:#176907;fill-opacity:1;fill-rule:evenodd;stroke:none;stroke-width:3.5;stroke-linecap:butt;stroke-miterlimit:4;stroke-dasharray:none;stroke-dashoffset:0;stroke-opacity:1"
               id="path4473"
               d="m 200.47228,142.50248 c -4.26049,4.25918 -12.88645,9.17147 -18.17969,11.89822 -4.36768,2.24997 -9.36468,4.0554 -13.71254,6.18585 l -12.06662,3.07383 -4.14567,1.60553 c 5.56994,-2.74595 21.64143,-9.47775 27.1334,-12.35488 4.65013,-2.43611 11.63565,-6.27818 15.22879,-10.23151 z"
               inkscape:connector-curvature="0"
               sodipodi:nodetypes="cscccscc" />
          </g>
        </g>
        <text
           sodipodi:linespacing="125%"
           id="text4477"
           y="139.58508"
           x="326.57602"
           style="font-style:normal;font-variant:normal;font-weight:normal;font-stretch:normal;font-size:39.59975052px;line-height:125%;font-family:Palatino;-inkscape-font-specification:Palatino;letter-spacing:0px;word-spacing:0px;fill:#000000;fill-opacity:1;stroke:none;stroke-width:1px;stroke-linecap:butt;stroke-linejoin:miter;stroke-opacity:1"
           xml:space="preserve"><tspan
             y="139.58508"
             x="326.57602"
             id="tspan4479"
             sodipodi:role="line">LeafCutter</tspan></text>
      </g>
    </g>
  </g>
</svg>
